HIERARCHY
ROOT Hips
{
	OFFSET 0.000000 121.760803 0.000000
	CHANNELS 6 Xposition Yposition Zposition Xrotation Yrotation Zrotation 
	JOINT Spine
	{
		OFFSET 0.072000 7.257294 -0.789700
		CHANNELS 3 Xrotation Yrotation Zrotation
		JOINT Spine1
		{
			OFFSET 0.000000 12.508769 -0.658067
			CHANNELS 3 Xrotation Yrotation Zrotation
			JOINT Spine1_split
			{
				OFFSET 0.000000 12.508769 -0.658067
				CHANNELS 3 Xrotation Yrotation Zrotation
				JOINT Spine2
				{
					OFFSET 0.000000 12.508769 -0.658067
					CHANNELS 3 Xrotation Yrotation Zrotation
					JOINT Neck
					{
						OFFSET 0.000000 14.033295 7.520400
						CHANNELS 3 Xrotation Yrotation Zrotation
						JOINT Head
						{
							OFFSET 0.000000 8.198502 5.703100
							CHANNELS 3 Xrotation Yrotation Zrotation
							JOINT HeadTop_End
							{
								OFFSET 0.000000 17.760803 13.332701
								CHANNELS 3 Xrotation Yrotation Zrotation
								End Site
								{
									OFFSET 0.000000 0.000000 0.000000
								}
							}
						}
					}
					JOINT LeftShoulder
					{
						OFFSET 6.292450 5.785301 -0.669000
						CHANNELS 3 Xrotation Yrotation Zrotation
						JOINT LeftShoulder_split
						{
							OFFSET 6.292450 5.785301 -0.669000
							CHANNELS 3 Xrotation Yrotation Zrotation
							JOINT LeftArm
							{
								OFFSET 13.907140 -6.093903 1.965100
								CHANNELS 3 Xrotation Yrotation Zrotation
								JOINT LeftForeArm
								{
									OFFSET 34.140198 0.000000 0.000000
									CHANNELS 3 Xrotation Yrotation Zrotation
									JOINT LeftHand
									{
										OFFSET 40.960209 0.000000 0.000000
										CHANNELS 3 Xrotation Yrotation Zrotation
										JOINT LeftHandThumb1
										{
											OFFSET 10.006996 -7.170425 9.573125
											CHANNELS 3 Xrotation Yrotation Zrotation
											JOINT LeftHandThumb2
											{
												OFFSET 1.835007 -1.059448 1.059443
												CHANNELS 3 Xrotation Yrotation Zrotation
												JOINT LeftHandThumb3
												{
													OFFSET 2.112267 -1.219513 1.219518
													CHANNELS 3 Xrotation Yrotation Zrotation
													JOINT LeftHandThumb4
													{
														OFFSET 4.843811 -2.796570 2.796576
														CHANNELS 3 Xrotation Yrotation Zrotation
														End Site
														{
															OFFSET 0.000000 0.000000 0.000000
														}
													}
												}
											}
										}
										JOINT LeftHandIndex1
										{
											OFFSET 18.389847 -0.922348 4.596882
											CHANNELS 3 Xrotation Yrotation Zrotation
											JOINT LeftHandIndex2
											{
												OFFSET 4.711273 0.000000 0.000000
												CHANNELS 3 Xrotation Yrotation Zrotation
												JOINT LeftHandIndex3
												{
													OFFSET 2.886131 0.000000 0.000000
													CHANNELS 3 Xrotation Yrotation Zrotation
													JOINT LeftHandIndex4
													{
														OFFSET 6.145912 0.000000 0.000000
														CHANNELS 3 Xrotation Yrotation Zrotation
														End Site
														{
															OFFSET 0.000000 0.000000 0.000000
														}
													}
												}
											}
										}
										JOINT LeftHandMiddle1
										{
											OFFSET 18.013008 0.000000 0.000000
											CHANNELS 3 Xrotation Yrotation Zrotation
											JOINT LeftHandMiddle2
											{
												OFFSET 4.946693 0.000000 0.000000
												CHANNELS 3 Xrotation Yrotation Zrotation
												JOINT LeftHandMiddle3
												{
													OFFSET 3.342232 0.000000 0.000000
													CHANNELS 3 Xrotation Yrotation Zrotation
													JOINT LeftHandMiddle4
													{
														OFFSET 4.461754 0.000000 0.000000
														CHANNELS 3 Xrotation Yrotation Zrotation
														End Site
														{
															OFFSET 0.000000 0.000000 0.000000
														}
													}
												}
											}
										}
										JOINT LeftHandRing1
										{
											OFFSET 15.849892 -0.102921 -4.126150
											CHANNELS 3 Xrotation Yrotation Zrotation
											JOINT LeftHandRing2
											{
												OFFSET 3.527054 0.000000 0.000000
												CHANNELS 3 Xrotation Yrotation Zrotation
												JOINT LeftHandRing3
												{
													OFFSET 2.961098 0.000000 0.000000
													CHANNELS 3 Xrotation Yrotation Zrotation
													JOINT LeftHandRing4
													{
														OFFSET 4.927200 0.000000 0.000000
														CHANNELS 3 Xrotation Yrotation Zrotation
														End Site
														{
															OFFSET 0.000000 0.000000 0.000000
														}
													}
												}
											}
										}
										JOINT LeftHandPinky1
										{
											OFFSET 12.791824 -0.832031 -6.799156
											CHANNELS 3 Xrotation Yrotation Zrotation
											JOINT LeftHandPinky2
											{
												OFFSET 3.327133 0.000000 0.000000
												CHANNELS 3 Xrotation Yrotation Zrotation
												JOINT LeftHandPinky3
												{
													OFFSET 3.014900 0.000000 0.000000
													CHANNELS 3 Xrotation Yrotation Zrotation
													JOINT LeftHandPinky4
													{
														OFFSET 5.847786 0.000000 0.000000
														CHANNELS 3 Xrotation Yrotation Zrotation
														End Site
														{
															OFFSET 0.000000 0.000000 0.000000
														}
													}
												}
											}
										}
									}
								}
							}
						}
					}
					JOINT RightShoulder
					{
						OFFSET -6.292450 5.785301 -0.669000
						CHANNELS 3 Xrotation Yrotation Zrotation
						JOINT RightShoulder_split
						{
							OFFSET -6.292450 5.785301 -0.669000
							CHANNELS 3 Xrotation Yrotation Zrotation
							JOINT RightArm
							{
								OFFSET -13.907140 -6.093903 1.965100
								CHANNELS 3 Xrotation Yrotation Zrotation
								JOINT RightForeArm
								{
									OFFSET -34.140198 0.000000 0.000000
									CHANNELS 3 Xrotation Yrotation Zrotation
									JOINT RightHand
									{
										OFFSET -40.960209 0.000000 0.000000
										CHANNELS 3 Xrotation Yrotation Zrotation
										JOINT RightHandThumb1
										{
											OFFSET -10.007050 -7.170456 9.573117
											CHANNELS 3 Xrotation Yrotation Zrotation
											JOINT RightHandThumb2
											{
												OFFSET -1.835007 -1.059448 1.059443
												CHANNELS 3 Xrotation Yrotation Zrotation
												JOINT RightHandThumb3
												{
													OFFSET -2.112267 -1.219513 1.219518
													CHANNELS 3 Xrotation Yrotation Zrotation
													JOINT RightHandThumb4
													{
														OFFSET -4.843834 -2.796585 2.796590
														CHANNELS 3 Xrotation Yrotation Zrotation
														End Site
														{
															OFFSET 0.000000 0.000000 0.000000
														}
													}
												}
											}
										}
										JOINT RightHandIndex1
										{
											OFFSET -18.389870 -0.922424 4.596786
											CHANNELS 3 Xrotation Yrotation Zrotation
											JOINT RightHandIndex2
											{
												OFFSET -4.711273 0.000000 0.000000
												CHANNELS 3 Xrotation Yrotation Zrotation
												JOINT RightHandIndex3
												{
													OFFSET -2.886131 0.000000 0.000000
													CHANNELS 3 Xrotation Yrotation Zrotation
													JOINT RightHandIndex4
													{
														OFFSET -6.145920 0.000000 0.000000
														CHANNELS 3 Xrotation Yrotation Zrotation
														End Site
														{
															OFFSET 0.000000 0.000000 0.000000
														}
													}
												}
											}
										}
										JOINT RightHandMiddle1
										{
											OFFSET -18.013008 0.000000 0.000000
											CHANNELS 3 Xrotation Yrotation Zrotation
											JOINT RightHandMiddle2
											{
												OFFSET -4.946693 0.000000 0.000000
												CHANNELS 3 Xrotation Yrotation Zrotation
												JOINT RightHandMiddle3
												{
													OFFSET -3.342232 0.000000 0.000000
													CHANNELS 3 Xrotation Yrotation Zrotation
													JOINT RightHandMiddle4
													{
														OFFSET -4.461754 0.000000 0.000000
														CHANNELS 3 Xrotation Yrotation Zrotation
														End Site
														{
															OFFSET 0.000000 0.000000 0.000000
														}
													}
												}
											}
										}
										JOINT RightHandRing1
										{
											OFFSET -15.849876 -0.102936 -4.126237
											CHANNELS 3 Xrotation Yrotation Zrotation
											JOINT RightHandRing2
											{
												OFFSET -3.527054 0.000000 0.000000
												CHANNELS 3 Xrotation Yrotation Zrotation
												JOINT RightHandRing3
												{
													OFFSET -2.961098 0.000000 0.000000
													CHANNELS 3 Xrotation Yrotation Zrotation
													JOINT RightHandRing4
													{
														OFFSET -4.927200 0.000000 0.000000
														CHANNELS 3 Xrotation Yrotation Zrotation
														End Site
														{
															OFFSET 0.000000 0.000000 0.000000
														}
													}
												}
											}
										}
										JOINT RightHandPinky1
										{
											OFFSET -12.791786 -0.832077 -6.799222
											CHANNELS 3 Xrotation Yrotation Zrotation
											JOINT RightHandPinky2
											{
												OFFSET -3.327133 0.000000 0.000000
												CHANNELS 3 Xrotation Yrotation Zrotation
												JOINT RightHandPinky3
												{
													OFFSET -3.014900 0.000000 0.000000
													CHANNELS 3 Xrotation Yrotation Zrotation
													JOINT RightHandPinky4
													{
														OFFSET -5.847786 0.000000 0.000000
														CHANNELS 3 Xrotation Yrotation Zrotation
														End Site
														{
															OFFSET 0.000000 0.000000 0.000000
														}
													}
												}
											}
										}
									}
								}
							}
						}
					}
				}
			}
		}
	}
	JOINT LeftUpLeg
	{
		OFFSET 13.026900 -6.336304 -1.092800
		CHANNELS 3 Xrotation Yrotation Zrotation
		JOINT LeftLeg
		{
			OFFSET 0.524474 -46.096886 9.782700
			CHANNELS 3 Xrotation Yrotation Zrotation
			JOINT LeftFoot
			{
				OFFSET -0.524474 -53.427422 -12.948200
				CHANNELS 3 Xrotation Yrotation Zrotation
				JOINT LeftToeBase
				{
					OFFSET 0.192200 -14.009700 16.364100
					CHANNELS 3 Xrotation Yrotation Zrotation
					JOINT LeftToe_End
					{
						OFFSET -1.784700 -0.561700 9.474800
						CHANNELS 3 Xrotation Yrotation Zrotation
						End Site
						{
							OFFSET 0.000000 0.000000 0.000000
						}
					}
				}
			}
		}
	}
	JOINT RightUpLeg
	{
		OFFSET -12.883000 -6.336304 -1.092800
		CHANNELS 3 Xrotation Yrotation Zrotation
		JOINT RightLeg
		{
			OFFSET -0.524587 -46.096825 9.782800
			CHANNELS 3 Xrotation Yrotation Zrotation
			JOINT RightFoot
			{
				OFFSET 0.524587 -53.427383 -12.948300
				CHANNELS 3 Xrotation Yrotation Zrotation
				JOINT RightToeBase
				{
					OFFSET -0.192200 -14.009700 16.364100
					CHANNELS 3 Xrotation Yrotation Zrotation
					JOINT RightToe_End
					{
						OFFSET 1.784700 -0.561700 9.474800
						CHANNELS 3 Xrotation Yrotation Zrotation
						End Site
						{
							OFFSET 0.000000 0.000000 0.000000
						}
					}
				}
			}
		}
	}
}
MOTION
Frames: 4
Frame Time: 0.016667
64.255013 108.212738 32.674709 -10.125797 -57.509298 -11.452870 9.097117 8.883323 0.433782 2.556082 17.404587 -2.385635 0.000000 0.000000 0.000000 3.099508 13.576341 -1.746530 -0.834488 -4.108949 0.255298 1.539943 -45.055941 4.111458 0.000000 0.000000 -0.000001 -6.510678 -24.283950 -29.301512 0.000000 0.000000 0.000000 -16.491702 27.629850 -48.402761 0.000001 -37.042353 -0.000011 20.414548 12.547361 -11.679934 -0.367416 1.022223 8.846108 11.332639 25.661873 5.956423 -1.978614 11.931660 20.214309 0.000001 0.000001 -0.000002 -3.147013 -1.008779 -32.685423 0.795790 2.949879 -30.188869 0.772652 2.909785 -29.736181 -0.000002 0.000002 0.000000 1.080612 5.663169 -36.569994 0.703183 2.784814 -28.337850 0.746034 2.862755 -29.207494 0.000000 0.000002 0.000000 2.638200 7.725028 -36.880447 0.871332 3.075880 -31.625890 0.916180 3.147433 -32.452087 -0.000000 0.000003 -0.000000 4.773558 10.152489 -39.332054 0.944668 3.191728 -32.967298 0.836442 3.018578 -30.969546 0.000000 0.000003 -0.000000 16.094134 -29.062595 21.606098 0.000000 0.000000 0.000000 17.231235 -22.622060 41.644821 -0.000011 113.407505 0.000040 50.459030 7.307174 26.799234 11.446980 0.444937 -2.639150 0.868417 -5.095148 -5.270574 -19.194712 12.675455 -8.491952 0.000002 0.000001 -0.000001 -1.101636 2.714070 12.099571 0.231096 -1.450243 18.106181 0.006197 -0.240494 2.953403 0.000003 0.000000 -0.000000 -0.590495 -0.253845 13.946827 0.529556 -2.158722 27.563013 0.105616 -0.987242 12.212442 0.000001 0.000001 0.000000 0.152624 -3.304637 16.160607 1.052576 -2.950890 39.255925 0.158926 -1.207484 14.995045 0.000001 -0.000001 -0.000002 1.396643 -6.662523 20.820606 0.310315 -1.673166 21.012857 0.040596 -0.614176 7.561565 0.000001 0.000000 0.000000 -14.458394 12.911052 6.352583 40.923307 -9.313849 1.340709 -22.681682 14.667264 3.639659 -3.379286 0.000018 -0.000001 -0.000000 0.000002 0.000000 -13.049900 14.777408 -15.402307 38.621824 -5.949711 -8.044039 32.030790 0.197969 25.269350 -27.605953 -2.648330 12.084790 0.000000 -0.000001 0.000000 
64.113281 107.770340 33.829739 -10.738546 -56.798706 -11.464711 9.613846 7.938368 -0.128260 2.662959 17.145943 -2.401211 0.000000 0.000000 0.000000 3.209018 13.582543 -1.840705 -0.835036 -4.107088 0.327522 1.616709 -45.330145 4.399509 0.000000 0.000002 -0.000001 -6.690962 -24.917013 -29.325755 0.000000 0.000000 0.000000 -17.150492 26.242816 -47.937741 -0.000001 -37.261411 -0.000008 18.651155 12.125992 -10.193070 -0.303177 1.156294 8.901284 11.336639 25.654617 5.977723 -1.941914 11.914824 20.241284 0.000000 -0.000000 0.000003 -3.164692 -0.956356 -33.003570 0.813134 2.979437 -30.524054 0.789480 2.939003 -30.065817 -0.000001 -0.000005 0.000002 1.100516 5.692196 -36.934637 0.718669 2.813296 -28.654819 0.762350 2.891692 -29.532478 0.000001 0.000004 -0.000001 2.669897 7.741943 -37.250964 0.890063 3.106050 -31.973222 0.935758 3.177959 -32.806980 -0.000000 0.000002 -0.000000 4.816361 10.146132 -39.734100 0.963083 3.219908 -33.296612 0.854406 3.048261 -31.309095 0.000000 -0.000000 -0.000000 16.288820 -29.166718 21.993800 0.000000 0.000000 0.000000 17.892131 -24.268779 42.118717 0.000002 113.885461 -0.000004 41.063814 5.287868 26.351244 11.448286 0.442792 -2.640249 0.869859 -5.099416 -5.271806 -19.191621 12.672133 -8.493076 -0.000002 -0.000002 -0.000004 -1.117758 2.690254 12.294188 0.236137 -1.465561 18.304378 0.007043 -0.256444 3.149597 0.000002 0.000000 -0.000000 -0.596853 -0.274222 14.142324 0.537010 -2.172925 27.760240 0.109022 -1.002873 12.408884 0.000004 -0.000001 0.000000 0.155904 -3.319401 16.357176 1.061192 -2.961380 39.422943 0.162443 -1.220562 15.161703 0.000001 -0.000000 0.000001 1.410552 -6.670703 21.018341 0.316097 -1.688121 21.209790 0.042715 -0.630035 7.757964 -0.000000 0.000000 0.000000 -13.631194 13.003941 5.051710 41.559420 -9.852349 1.623835 -23.638045 14.890427 4.486692 -3.382242 -0.000008 -0.000000 -0.000000 0.000002 -0.000000 -15.391321 16.619694 -13.669884 43.846956 -5.442180 -8.449296 29.869602 1.796326 22.602781 -21.766211 -2.263259 11.288132 -0.000001 0.000000 -0.000000 
63.966026 107.487976 35.031799 -11.214697 -55.873335 -11.468922 10.085302 6.881363 -0.491539 2.778477 16.848642 -2.408986 0.000000 0.000000 0.000000 3.327780 13.548344 -1.925066 -0.836520 -4.091359 0.390947 1.663307 -45.506600 4.655205 -0.000001 0.000002 -0.000000 -6.858129 -25.585233 -29.281222 0.000000 0.000000 0.000000 -17.849557 24.629990 -47.582014 -0.000014 -37.102380 -0.000040 17.190208 11.684771 -8.623611 -0.239665 1.289020 8.955671 11.340620 25.647437 5.998786 -1.905608 11.898207 20.267978 0.000001 -0.000002 -0.000003 -3.181875 -0.904415 -33.318424 0.830463 3.008589 -30.855721 0.806292 2.967815 -30.392054 0.000002 0.000002 0.000001 1.120392 5.720790 -37.295538 0.734155 2.841407 -28.968499 0.778649 2.920249 -29.854094 0.000002 -0.000000 0.000000 2.701357 7.758501 -37.617683 0.908763 3.135764 -32.316955 0.955316 3.208066 -33.158205 -0.000000 -0.000001 -0.000000 4.858571 10.139626 -40.131944 0.981471 3.247681 -33.622521 0.872369 3.077565 -31.645127 0.000000 -0.000001 0.000000 16.428043 -29.286137 22.283881 0.000000 0.000000 0.000000 18.343110 -25.660563 42.553069 -0.000039 114.043955 0.000035 34.092524 4.326344 26.246897 11.449741 0.440227 -2.641558 0.872406 -5.108719 -5.273693 -19.187127 12.663201 -8.495782 0.000000 -0.000000 -0.000003 -1.093852 2.717392 12.021030 0.229014 -1.443887 18.024087 0.005869 -0.234009 2.873822 0.000002 0.000000 0.000001 -0.586995 -0.249512 13.867928 0.526559 -2.152979 27.483382 0.104267 -0.980965 12.133561 -0.000002 0.000001 0.000001 0.150477 -3.295855 16.081655 1.039527 -2.934859 39.001538 0.153614 -1.187487 14.741254 -0.000001 0.000001 -0.000003 1.388036 -6.651364 20.741464 0.307994 -1.667117 20.933206 0.039744 -0.607811 7.482722 -0.000001 -0.000000 -0.000000 -12.709402 13.076070 3.939502 41.891866 -10.099281 1.879597 -24.380205 14.576035 5.175869 -3.374965 0.000011 -0.000001 -0.000000 -0.000003 -0.000000 -17.744642 18.104443 -11.619606 48.755543 -5.332347 -8.586096 26.398784 4.312823 19.753062 -14.415806 -1.298206 8.700213 0.000002 0.000000 -0.000001 
63.818542 107.319817 36.304596 -11.443375 -54.676067 -11.426361 10.452287 5.656158 -0.616296 2.886334 16.500537 -2.402979 0.000000 0.000000 0.000000 3.439225 13.460948 -1.993053 -0.825261 -4.058135 0.451981 1.734946 -45.565227 4.903152 0.000000 0.000001 0.000000 -7.018227 -26.326416 -29.169300 0.000000 0.000000 0.000000 -18.434945 23.003976 -47.374028 -0.000003 -36.923268 -0.000005 16.093152 11.349608 -7.118663 -0.177018 1.420193 9.009162 11.344529 25.640344 6.019610 -1.869734 11.881830 20.294363 0.000001 -0.000000 -0.000002 -3.198558 -0.852999 -33.629338 0.847743 3.037276 -31.183314 0.823037 2.996161 -30.714247 -0.000001 -0.000002 0.000001 1.140235 5.748947 -37.651978 0.749577 2.869057 -29.278320 0.794914 2.948362 -30.171756 -0.000001 0.000000 -0.000000 2.732499 7.774685 -37.979844 0.927433 3.165040 -32.656439 0.974818 3.237669 -33.505100 0.000000 0.000002 -0.000000 4.900112 10.132997 -40.524875 0.999780 3.275004 -33.944418 0.890271 3.106377 -31.977016 0.000001 0.000002 -0.000001 16.511892 -29.414698 22.476727 0.000000 0.000000 0.000000 18.832097 -26.862745 43.040526 -0.000036 114.021348 0.000038 28.272822 3.883401 26.345220 11.451386 0.436206 -2.643302 0.877841 -5.126589 -5.276864 -19.179929 12.645100 -8.501212 -0.000000 0.000000 0.000001 -1.053557 2.761297 11.566191 0.217392 -1.407682 17.556977 0.004150 -0.196633 2.414565 -0.000001 0.000001 -0.000000 -0.570156 -0.209049 13.411044 0.509371 -2.119642 27.022387 0.096568 -0.944442 11.675306 -0.000001 0.000001 0.000001 0.142052 -3.257689 15.622891 1.001907 -2.887829 38.260736 0.138674 -1.129179 14.002045 -0.000001 -0.000001 -0.000002 1.350205 -6.617242 20.280703 0.294740 -1.632053 20.472689 0.035031 -0.570781 7.024559 -0.000001 0.000000 0.000000 -11.831247 13.094943 3.124752 42.037967 -10.101989 2.051617 -24.963032 13.680810 5.748484 -3.339836 0.000015 -0.000001 -0.000000 0.000000 -0.000000 -20.068414 19.133701 -9.391873 53.010587 -5.556690 -8.443227 22.639687 7.653050 17.197269 -7.906135 -0.265559 4.007680 0.000003 -0.000000 -0.000000 
